<svg width="40" height="46" viewBox="0 0 40 46" fill="none" xmlns="http://www.w3.org/2000/svg">
    <g clip-path="url(#qdg67dyxwa)" fill="#fff">
        <path d="M20 12.156c5.92 0 8.686 5.313 8.686 8.902 0 6.607-6.54 11.678-8.686 13.16-2.145-1.482-8.687-6.562-8.687-13.16 0-3.59 2.759-8.902 8.687-8.902zm0-1.34c-6.383 0-10 5.617-10 10.242 0 8.732 10 14.759 10 14.759s10-6.027 10-14.759c-.009-4.625-3.625-10.241-10-10.241z"/>
        <path d="M20 18.124a2.7 2.7 0 0 1 2.693 2.693A2.7 2.7 0 0 1 20 23.51a2.7 2.7 0 0 1-2.693-2.693A2.7 2.7 0 0 1 20 18.124zm0-1.307a4 4 0 1 0 0 8 4 4 0 0 0 0-8z"/>
    </g>
    <defs>
        <clipPath id="qdg67dyxwa">
            <path fill="#fff" transform="translate(10 10.817)" d="M0 0h20v25H0z"/>
        </clipPath>
    </defs>
</svg>
