<svg width="174" height="91" viewBox="0 0 174 91" fill="none" xmlns="http://www.w3.org/2000/svg">
    <path d="M144.094 66.225c-1.686 1.641-3.171 3.17-4.737 4.586-1.697 1.539-3.714 2.609-5.973 2.874-2.509.295-4.717-1.407-5.119-4.178-.251-1.712-.1-6.206-.12-6.685-.121-.04-.231-.071-.351-.112-.633.825-1.255 1.66-1.908 2.466-2.439 3.016-5.229 5.655-8.642 7.439-1.997 1.05-4.336 1.742-6.494.305-.863-.58-1.656-1.549-2.028-2.517-.722-1.905-.461-6.216-.491-6.562-.462.306-6.374 6.776-9.867 8.702-2.188 1.203-4.658 1.794-6.916.306-.954-.632-1.716-1.926-2.048-3.077-.381-1.335-.19-2.843-.25-4.27-.02-.479-.06-.948-.1-1.65-1.466 1.834-2.62 3.535-4.026 4.992a29.776 29.776 0 0 1-4.567 3.883c-2.47 1.691-5.57 1.335-7.608-.703-1.225-1.233-1.667-2.894-1.928-4.545-.762-3.832.442-9.283.502-9.885-.13-.05-9.375 10.13-13.851 13.013-2.4 1.55-4.939 2.364-7.579 3.078-2.429.652-6.956-.918-8.38-3.934-1.557-3.291-1.687-6.583-1.095-10.037.15-.866.22-1.753.422-2.598.441-1.804.883-3.608 1.435-5.38.572-1.815 1.174-3.628 1.957-5.36 1.957-4.3 4.196-8.459 7.187-12.117 2.269-2.771 4.668-5.472 7.237-7.958 1.566-1.518 3.433-2.904 5.42-3.73 2.39-1.009 4.999-1.865 7.699-1.11 2.028.57 4.507 3.118 4.778 5.4.371 3.098-.15 6.084-1.235 8.794-1.526 3.822-3.884 7.215-6.765 10.231-2.8 2.935-6.083 5.146-9.596 6.97-1.827.948-3.884 1.56-5.902 1.977-1.415.296-2.278.999-2.57 2.252-.471 2.089-.963 4.219-.993 6.338-.05 3.21 2.349 4.341 5.31 3.139 5.008-2.028 8.833-5.584 12.356-9.487 2.61-2.894 4.958-6.053 7.217-9.242 1.124-1.59 1.706-3.557 2.65-5.3 1.184-2.19 2.449-4.33 3.724-6.47 2.248-3.78 5.159-7.021 8.4-9.915 1.517-1.355 3.193-2.71 5.04-3.475 2.238-.927 4.627-1.865 7.196-1.294 1.667.377 2.379 1.671 2.941 3.128.131.337.221.693.623 1.05.381-.846.793-1.681 1.114-2.547.371-1.02 1.004-1.56 2.108-1.55 2.479.021 4.958-.02 7.448.031 1.264.02 1.405.285.893 1.447-1.696 3.801-16.391 37.01-17.736 40.475-.201.53-.13 1.294.09 1.834.321.795.984.826 1.777.48 2.629-1.142 4.446-3.231 6.193-5.381 2.66-3.7 4.677-6.827 6.173-10.771 1.124-2.955 19.181-44.225 20.145-46.446.331-.765.562-1.6 1.034-2.263.301-.417.953-.784 1.455-.805 2.56-.081 5.119-.07 7.679-.03 1.014.02 1.295.52.863 1.671-.602 1.59-24.863 57.523-25.786 60.06-.361.978-.642 2.038-.683 3.098-.03.764.733 1.284 1.486.989.823-.327 1.666-.724 2.359-1.274 3.724-2.904 6.474-6.665 9.003-10.639 2.279-3.566 3.684-7.53 5.3-11.402 1.225-2.966 2.58-5.88 3.844-8.825 1.255-2.914 2.47-5.839 3.704-8.763.321-.765.613-1.56.994-2.293.381-.724.913-1.233 1.857-1.223 2.6.04 5.199 0 7.799.01 1.124 0 1.395.581.923 1.64-1.666 3.72-16.09 37.337-16.973 39.885-.161.479-.251 1.029-.201 1.528.131 1.315.914 1.671 2.038 1.08 3.112-1.62 5.029-4.412 6.815-7.255 1.787-2.833 3.403-5.788 4.889-8.804 1.375-2.802 11.051-25.557 11.904-27.208.221-.417.903-.805 1.385-.825 2.64-.082 5.28-.061 7.92-.03.933.01 1.204.478.813 1.314-1.807 3.872-22.524 48.016-23.97 51.174-1.696 3.72-4.286 6.767-6.996 9.67-1.455 1.56-3.463 2.569-5.129 3.934-2.298 1.875-4.537 2.079-7.618 2.863-2.72.561-5.059.306-7.498-.193-2.881-.591-5.521-1.804-7.428-4.045-1.516-1.794-2.419-4.84.211-6.777 1.505-1.11 3.051-.662 4.607-.143 2.389.805 3.925 2.782 5.611 4.464 1.516 1.508 3.302 2.231 5.209 2.812 1.506.459 2.941-.163 4.116-1.019 1.796-1.304 2.81-3.24 3.663-5.288 1.245-2.996 2.55-5.972 3.835-8.958.612-1.416 1.837-4.697 1.837-5.095M101.576 28.41c.04-1.6-.713-2.466-1.737-1.814-1.646 1.04-3.352 2.14-4.597 3.598-2.429 2.842-4.667 5.869-6.364 9.272-1.154 2.303-2.66 4.443-3.593 6.828-1.576 4.005-3.041 7.51-4.125 11.953-.241 1.732-.673 4.117-.904 5.859-.02 2.537 1.375 2.018 2.188 1.61 1.145-.56 1.727-1.213 2.59-2.12 4.336-4.585 7.267-10.139 9.977-15.794a122.14 122.14 0 0 0 4.628-11.056c.973-2.67 2.037-8.305 1.937-8.336zM53.065 50.87c2.168.63 4.858-2.396 6.695-4.169 3.292-3.19 6.062-6.868 8.16-10.995.783-1.538 1.415-3.159 2.028-4.779.431-1.151.753-2.344 1.034-3.546.12-.52.622-3.159-2.098-1.57-1.847 1.101-3.242 2.334-4.668 4.077-3.181 3.872-5.781 8.1-8.04 12.554-1.194 2.354-1.806 3.312-2.8 5.767-.13.316-.743 2.446-.311 2.66z" fill="#fff"/>
    <path d="M42.905 7.549c6.031.09 5.553 4.645 8.533 8.616 1.648 1.522 6.459 3.638 9.276-.786 1.007-1.713.448-4.213-.417-5.986-2.075-3.417-3.875-4.152-7.211-5.966-8.452-2.963-17.393 1.27-20.708 4.968-2.197 2.47-4.649 6.137-5.778 9.765-3.122 10.149 3.784 37.47.946 45.955-.996 2.812-2.624 4.102-4.841 4.464-10.68.162-9.022-11.337-17.932-11.095-1.78.312-3.916 2.197-4.22 3.83-.296 2.992.67 6.036 2.603 8.203 5.197 6.258 13.782 6.752 20.82 4.807 8.33-3.084 12.643-10.652 13.538-19.692 1.434-14.583-3.56-26.958-1.444-42.014 1.556-4.848 4.617-4.989 6.845-5.07" fill="#fff"/>
</svg>
