<svg width="64" height="55" viewBox="0 0 64 55" fill="none" xmlns="http://www.w3.org/2000/svg">
    <path d="m32.826 47.61 19.882-8.607c4.495-2.192 8.252-6.477 8.169-11.783-.074-4.93-3.786-9.776-8.046-11.794-6.476-3.08-20.005-8.295-20.005-8.295l-.869-.107-19.882 8.613c-4.493 2.194-8.247 6.482-8.172 11.78.074 4.924 3.786 9.77 8.049 11.796 6.475 3.08 20.005 8.303 20.005 8.303l.869.094z" fill="#fff"/>
    <path d="M11.783 15.719c-4.47 2.19-8.207 6.47-8.131 11.76.073 4.92 3.767 9.757 8.008 11.776 6.444 3.072 19.907 8.285 19.907 8.285s-16.132 5.907-20.084 6.602c-1.942.326-4.366.697-6.037.357-1.747-.217-2.885-1.425-3.354-3.066-2.788-15.31-2.679-31.424-.33-46.754.289-1.75 1.395-3.352 3.184-3.85C7.2.206 9.309.58 11.49.937c7.014 1.402 13.444 3.826 20.076 6.187L11.783 15.72zm40.432 23.194c4.472-2.198 8.211-6.472 8.128-11.755-.073-4.928-3.765-9.767-8.006-11.779-6.444-3.08-19.906-8.284-19.906-8.284S48.56 1.182 52.519.495c1.94-.337 4.364-.697 6.035-.36C60.3.35 61.434 1.55 61.913 3.19c2.778 15.31 2.679 31.424.32 46.754-.289 1.755-1.39 3.357-3.187 3.85-2.252.627-4.358.259-6.54-.11-7.013-1.4-13.447-3.823-20.075-6.187l19.784-8.585z" fill="#7AADD3"/>
    <path d="M46.208 32.702c-.433.423-.815.818-1.217 1.183-.436.397-.954.673-1.535.742-.644.076-1.212-.363-1.315-1.079-.064-.441-.026-1.601-.03-1.725-.032-.01-.06-.018-.091-.029-.163.213-.322.43-.49.637-.627.778-1.344 1.46-2.22 1.92-.514.27-1.115.45-1.67.079-.221-.15-.425-.4-.52-.65-.186-.492-.119-1.604-.127-1.694-.118.08-1.637 1.75-2.535 2.246-.562.31-1.196.463-1.777.08-.245-.164-.44-.498-.526-.795-.098-.345-.049-.734-.064-1.102-.005-.124-.016-.245-.026-.426-.376.473-.673.913-1.034 1.289a7.66 7.66 0 0 1-1.174 1.002 1.508 1.508 0 0 1-1.954-.182c-.315-.318-.429-.747-.496-1.173-.196-.989.114-2.396.13-2.55-.034-.014-2.41 2.613-3.56 3.358-.616.4-1.269.61-1.947.794-.624.168-1.787-.237-2.153-1.015-.4-.85-.434-1.7-.281-2.59.038-.224.056-.453.108-.671.113-.466.227-.931.369-1.389.147-.468.301-.936.503-1.383.502-1.11 1.078-2.183 1.846-3.127.583-.716 1.2-1.413 1.86-2.054.402-.392.882-.75 1.392-.963.614-.26 1.285-.481 1.978-.287.521.148 1.158.805 1.228 1.394.095.8-.039 1.57-.317 2.27-.392.986-.998 1.862-1.738 2.64-.72.758-1.563 1.328-2.466 1.8-.47.244-.998.402-1.517.51-.363.076-.585.257-.66.58-.121.54-.247 1.09-.255 1.637-.013.828.603 1.12 1.364.81 1.287-.524 2.27-1.442 3.175-2.449.67-.747 1.274-1.562 1.854-2.385.29-.41.439-.918.681-1.368.304-.565.63-1.117.957-1.67.578-.976 1.326-1.812 2.159-2.559.389-.35.82-.7 1.294-.896.575-.24 1.19-.482 1.85-.334.427.097.61.43.755.807.034.087.057.179.16.27.098-.217.204-.433.286-.657.096-.263.258-.402.542-.4.637.006 1.274-.005 1.913.008.325.006.361.074.23.374-.436.98-4.212 9.552-4.557 10.446a.712.712 0 0 0 .023.473c.083.205.253.213.456.124.676-.295 1.143-.834 1.592-1.389.683-.954 1.202-1.762 1.586-2.78.289-.762 4.928-11.413 5.176-11.987.085-.197.144-.413.266-.584a.554.554 0 0 1 .373-.207 41.2 41.2 0 0 1 1.974-.008c.26.005.332.134.221.431-.154.41-6.388 14.846-6.625 15.5a2.644 2.644 0 0 0-.176.8c-.007.198.189.332.382.255.212-.084.428-.186.606-.328.957-.75 1.664-1.72 2.314-2.746.585-.92.946-1.944 1.361-2.943.315-.765.663-1.517.988-2.277.322-.752.635-1.507.952-2.262.082-.197.157-.402.255-.592.098-.186.235-.318.477-.315.668.01 1.336 0 2.004.002.289 0 .358.15.237.424-.428.96-4.134 9.636-4.36 10.293a.98.98 0 0 0-.052.395c.033.339.234.43.523.278.8-.418 1.292-1.138 1.751-1.872a24.81 24.81 0 0 0 1.256-2.272c.354-.724 2.84-6.596 3.059-7.022.057-.108.232-.208.356-.213a47.762 47.762 0 0 1 2.035-.008c.24.002.31.123.209.34-.465.998-5.788 12.391-6.16 13.207-.435.96-1.1 1.746-1.797 2.495-.374.403-.89.663-1.317 1.015-.591.484-1.166.537-1.958.74-.699.144-1.3.078-1.926-.05-.74-.153-1.419-.466-1.909-1.045-.39-.462-.621-1.249.054-1.748.387-.287.784-.171 1.184-.037.614.207 1.008.718 1.442 1.152.39.389.848.576 1.338.725.387.119.756-.042 1.058-.262.461-.337.722-.837.94-1.365.32-.774.656-1.541.986-2.312.157-.366.472-1.212.472-1.315m-10.932-9.744c.01-.413-.184-.636-.447-.468-.423.268-.861.552-1.18.928-.625.734-1.2 1.515-1.636 2.394-.296.594-.683 1.146-.923 1.762-.405 1.033-.782 1.938-1.06 3.084-.062.448-.173 1.063-.232 1.513-.005.654.353.52.562.415.294-.144.444-.313.665-.547 1.114-1.183 1.868-2.617 2.564-4.076.444-.928.838-1.886 1.189-2.854.25-.689.523-2.143.498-2.15zm-12.465 5.796c.557.163 1.248-.618 1.72-1.075a10.694 10.694 0 0 0 2.097-2.838c.201-.397.364-.815.521-1.233.111-.297.194-.605.266-.915.03-.135.16-.816-.54-.405a4.365 4.365 0 0 0-1.198 1.052c-.818.999-1.486 2.09-2.066 3.24-.307.607-.465.854-.72 1.488-.033.082-.19.631-.08.686z" fill="#231815"/>
    <path d="M20.262 17.705c1.55.024 1.427 1.194 2.192 2.214.424.391 1.66.935 2.384-.202.258-.44.115-1.082-.108-1.538-.533-.878-.995-1.067-1.852-1.533-2.172-.761-4.47.327-5.321 1.277-.565.634-1.194 1.577-1.485 2.509-.802 2.607.973 9.627.244 11.808-.257.722-.675 1.053-1.244 1.146-2.744.042-2.318-2.913-4.608-2.85-.457.08-1.006.564-1.084.984-.076.769.172 1.55.669 2.107 1.335 1.608 3.54 1.735 5.35 1.235 2.14-.792 3.248-2.736 3.478-5.06.368-3.746-.915-6.926-.372-10.794.4-1.246 1.187-1.282 1.76-1.303" fill="#181418"/>
</svg>
